# xmcd
#
# Track frame offsets:
#	150
#	17645
#	35730
#	54490
#	70690
#	86566
#	103730
#	119814
#	136706
#	154395
#	171272
#	181497
#	200158
#	219268
#	236803
#	253422
#	269834
#	287706
#	301019
#	317749
#
# Disc length: 4408 seconds
#
# Revision: 1
# Processed by: cddbd v1.5.2PL0 Copyright (c) Steve Scherf et al.
# Submitted via: audiograbber 1.83.01
#
DISCID=35113614
DTITLE=Various Artist - CDX 466
DYEAR=2009
DGENRE=Country
TTITLE0=Lady Antellum - I run for you
TTITLE1=Carrie Underwood - I told you so
TTITLE2=Steve Holy - Might have been
TTITLE3=Montgomery Gentry - One in every crowd
TTITLE4=Trent Tomlinson - That's how it still oughta be
TTITLE5=Collin Raye - Mid - life chrysler
TTITLE6=Bluefield - Ready to love you now
TTITLE7=Gloriana - Wild at heart
TTITLE8=Jason Mitchell - (I'm yo') Chicken man
TTITLE9=Tony "Hobo" Parks - Take it all
TTITLE10=Julie I(ngram - Gone to Kentucky
TTITLE11=Dennis Wilson - He sent an angel my way
TTITLE12=Megan Munroe - Moonshine
TTITLE13=Bill Wence - Old rock and roller (with The Jordanaires)Nummer 14
TTITLE14=Connie Kis Anderson - Once again
TTITLE15=Julia Burton - What a woman wants
TTITLE16=Gary Gene Burton - Whatever happened to main street
TTITLE17=K Wilder - Cat bird's kitten
TTITLE18=Ryan Carpon - Why
TTITLE19=Derek Joseph - No cool way
EXTD=
EXTT0=
EXTT1=
EXTT2=
EXTT3=
EXTT4=
EXTT5=
EXTT6=
EXTT7=
EXTT8=
EXTT9=
EXTT10=
EXTT11=
EXTT12=
EXTT13=
EXTT14=
EXTT15=
EXTT16=
EXTT17=
EXTT18=
EXTT19=
PLAYORDER=
